<svg id="レイヤー_1" data-name="レイヤー 1" xmlns="http://www.w3.org/2000/svg" viewBox="0 0 265 144"><title>head2</title><g id="レイヤー_2" data-name="レイヤー 2"><g id="レイヤー_1-2" data-name="レイヤー 1-2"><path d="M73.68,33.65h1l1.18-2.07a13.26,13.26,0,0,0,3.89,2.28,12.65,12.65,0,0,0,4.31.66,14.48,14.48,0,0,0,4.63-.69A10.71,10.71,0,0,0,92.28,32a8.73,8.73,0,0,0,3.2-6.88,8.09,8.09,0,0,0-.5-3,7.28,7.28,0,0,0-1.73-2.52A16.85,16.85,0,0,0,90,17.12a48.84,48.84,0,0,0-5.17-2.58,26.52,26.52,0,0,1-3-1.54,10.62,10.62,0,0,1-2-1.47A4.64,4.64,0,0,1,78.7,10a4.76,4.76,0,0,1-.34-1.83,4.26,4.26,0,0,1,1.51-3.4A6.26,6.26,0,0,1,84,3.49a6.68,6.68,0,0,1,4.6,1.68,10.59,10.59,0,0,1,2.94,5.2H93L92.54,2h-1l-1,1.89A12.34,12.34,0,0,0,87.28,2a10.34,10.34,0,0,0-3.45-.59A11.11,11.11,0,0,0,80,2a9.23,9.23,0,0,0-3,1.85,8.67,8.67,0,0,0-2,2.83,9.12,9.12,0,0,0-.69,3.57,9,9,0,0,0,.44,2.92,6.78,6.78,0,0,0,1.5,2.42,11.76,11.76,0,0,0,2.82,2.18A37.24,37.24,0,0,0,83.54,20c1.22.52,2.4,1.09,3.56,1.72a12,12,0,0,1,2.25,1.61A4.74,4.74,0,0,1,90.9,27a4.8,4.8,0,0,1-1.8,4,7.55,7.55,0,0,1-4.92,1.47,9.94,9.94,0,0,1-3.51-.57,9.1,9.1,0,0,1-2.88-1.62,8.49,8.49,0,0,1-2.05-2.56,10.47,10.47,0,0,1-1.12-3.4H73.06ZM103,14.5V29.37a4.9,4.9,0,0,0,1.45,3.8,6.17,6.17,0,0,0,4.23,1.32,7.22,7.22,0,0,0,3.6-.82,4.58,4.58,0,0,0,2-2.38l-1.06-.8A4.66,4.66,0,0,1,111.78,32a3.42,3.42,0,0,1-1.79.44,3.08,3.08,0,0,1-1.38-.25,2.05,2.05,0,0,1-.89-.86,4.88,4.88,0,0,1-.48-1.62,15.81,15.81,0,0,1-.16-2.48V14.49h5.64v-2h-5.64V7.22h-1.22A8.68,8.68,0,0,1,104,10.37a15.17,15.17,0,0,1-3.5,2.6v1.56Zm22-2.23a11.19,11.19,0,0,0-6.25,6,11.46,11.46,0,0,0-.92,4.58,12.19,12.19,0,0,0,.92,4.73A11.32,11.32,0,0,0,125,33.67a12,12,0,0,0,12.79-2.46,11.42,11.42,0,0,0,3.53-8.4,11.05,11.05,0,0,0-1-4.56,10.93,10.93,0,0,0-2.58-3.59A11.78,11.78,0,0,0,134,12.37a12.47,12.47,0,0,0-9,0Zm7.4,1.87a6.75,6.75,0,0,1,2.22,1.93,9.12,9.12,0,0,1,1.43,3,13,13,0,0,1,.5,3.82,13.94,13.94,0,0,1-.5,3.91,9.32,9.32,0,0,1-1.43,3,6.09,6.09,0,0,1-5.13,2.61,6.21,6.21,0,0,1-2.87-.67,6.42,6.42,0,0,1-2.16-1.92,8.63,8.63,0,0,1-1.38-3A15,15,0,0,1,123,19a9.52,9.52,0,0,1,1.38-3,6.8,6.8,0,0,1,2.19-1.91,5.88,5.88,0,0,1,2.84-.67A6,6,0,0,1,132.4,14.14ZM153.73,26a24.69,24.69,0,0,1,.19-3.21,19.61,19.61,0,0,1,.52-2.75,10.9,10.9,0,0,1,1.77-3.7A3.06,3.06,0,0,1,158.43,15a1.56,1.56,0,0,1,.7.16l.67.36a5.5,5.5,0,0,0,.82.36,3.35,3.35,0,0,0,1.14.17,2.65,2.65,0,0,0,1.81-.57,2,2,0,0,0,.63-1.58,2.18,2.18,0,0,0-.78-1.74,3.24,3.24,0,0,0-2.12-.65,5.64,5.64,0,0,0-2.15.42,8.45,8.45,0,0,0-2,1.15,9.48,9.48,0,0,0-1.79,1.79,10.06,10.06,0,0,0-1.35,2.3h-.16L153.22,12l-7.37,1.6V15a11.52,11.52,0,0,1,2.11.14,1.55,1.55,0,0,1,1.11.91,6.51,6.51,0,0,1,.42,2.35c0,1.06.07,2.55.07,4.45v5c0,.85,0,1.7-.11,2.54a3.08,3.08,0,0,1-.48,1.45,2,2,0,0,1-1.1.69,9.78,9.78,0,0,1-1.93.23v1.47h11.19v-1.5a11.92,11.92,0,0,1-1.89-.25,1.67,1.67,0,0,1-1-.7,3.2,3.2,0,0,1-.45-1.53c0-.67-.08-1.58-.08-2.73V26Zm32.81-5.66c.67-1.56,1.25-2.81,1.7-3.73a16,16,0,0,1,1.3-2.13,2.8,2.8,0,0,1,1.11-.94,3.52,3.52,0,0,1,1.36-.21V11.85h-9.26v1.52a4.84,4.84,0,0,1,2.34.38,1.63,1.63,0,0,1,.61,1.47,4.17,4.17,0,0,1-.08.71,4.86,4.86,0,0,1-.24,1c-.14.37-.31.86-.56,1.45s-.53,1.34-.89,2.26L180,30h-.22l-4.58-11.17a17.39,17.39,0,0,1-.84-2.39,6.73,6.73,0,0,1-.34-1.72c0-.93.94-1.39,2.82-1.39V11.85H165.62v1.52a9.16,9.16,0,0,1,1.39.23,2.34,2.34,0,0,1,1,.55,4,4,0,0,1,.84,1.09c.27.46.58,1.08,1,1.87l8.08,17.51-1.47,2.94a9.09,9.09,0,0,1-.78,1.35,4,4,0,0,1-.9.9,6.06,6.06,0,0,1-1.18.56,8.92,8.92,0,0,1-1.51.35,7.6,7.6,0,0,0-2.72.82,1.71,1.71,0,0,0-.73,1.54c0,1.31.88,2,2.65,2,2.72,0,4.73-1.45,6-4.33Zm-68.83,46a11.22,11.22,0,0,0-6.24,6,11.45,11.45,0,0,0-.91,4.58,12.18,12.18,0,0,0,.91,4.73,11.75,11.75,0,0,0,19.05,3.71,11.37,11.37,0,0,0,3.51-8.4,10.74,10.74,0,0,0-1-4.56,11.39,11.39,0,0,0-2.56-3.59,12.34,12.34,0,0,0-12.8-2.4Zm7.39,1.87a6.29,6.29,0,0,1,2.23,1.93,8.83,8.83,0,0,1,1.43,3,13,13,0,0,1,.5,3.82,13.59,13.59,0,0,1-.5,3.91,9.12,9.12,0,0,1-1.43,3,6.1,6.1,0,0,1-5.14,2.54,6.2,6.2,0,0,1-2.86-.67,6.73,6.73,0,0,1-2.16-1.92,8.94,8.94,0,0,1-1.39-3,15.43,15.43,0,0,1-.49-4,15,15,0,0,1,.49-3.84,9.13,9.13,0,0,1,1.39-3A6.35,6.35,0,0,1,119.35,68a5.88,5.88,0,0,1,2.84-.67,6,6,0,0,1,2.91.69Zm12.92.36h4.75V81.68a17.93,17.93,0,0,1-.12,2.54,3.22,3.22,0,0,1-.5,1.47,1.92,1.92,0,0,1-1.09.72,9.48,9.48,0,0,1-1.9.23v1.47h12V86.64a10,10,0,0,1-2.19-.27,2.48,2.48,0,0,1-1.32-.84,3.46,3.46,0,0,1-.67-1.62,13.73,13.73,0,0,1-.19-2.56V68.5h6.8v-2h-6.77V63.25a29,29,0,0,1,.14-3.36,7.78,7.78,0,0,1,.53-2.07A3.76,3.76,0,0,1,151,55.26a3.66,3.66,0,0,1,1.39.27A9,9,0,0,1,154,56.68a10.58,10.58,0,0,0,1.51,1.07,2.19,2.19,0,0,0,1.08.32A1.69,1.69,0,0,0,158,57.5a1.88,1.88,0,0,0,.53-1.39A2.41,2.41,0,0,0,156.84,54a10.2,10.2,0,0,0-4.25-.8c-3.15,0-5.58.91-7.26,2.71a10.55,10.55,0,0,0-2.55,7.54v3h-4.73v2ZM9.54,112.37a.65.65,0,0,1,.53-.72H15.6a21.31,21.31,0,0,1,3.66.25,6.5,6.5,0,0,1,2.5.88,4.47,4.47,0,0,1,1.56,1.7,8.25,8.25,0,0,1,.82,2.75h1.5l-.37-7.39H1v1.53a13.38,13.38,0,0,1,2.19.27,2.11,2.11,0,0,1,1.28.71A2.9,2.9,0,0,1,5,113.79a15.72,15.72,0,0,1,.15,2.37v19.58A13.65,13.65,0,0,1,5,138.13a2.69,2.69,0,0,1-.68,1.43,3,3,0,0,1-1.41.71,12.54,12.54,0,0,1-2.37.25v1.6H26.66l.63-8.27h-1.6a13,13,0,0,1-1,3.09,5.22,5.22,0,0,1-1.64,2A6.62,6.62,0,0,1,20.44,140a23.86,23.86,0,0,1-7.11.08,5.29,5.29,0,0,1-2.16-.8A3,3,0,0,1,10,137.82a6.78,6.78,0,0,1-.34-2.28V126a19.31,19.31,0,0,1,3.88.33,6.93,6.93,0,0,1,2.45.92,3.28,3.28,0,0,1,1.26,1.54,6,6,0,0,1,.36,2.18H19v-11.5H17.54a5.49,5.49,0,0,1-.4,2.19,3.46,3.46,0,0,1-1.3,1.51,6.83,6.83,0,0,1-2.45.86,24.77,24.77,0,0,1-3.85.3ZM54.72,112c-2.12-1.43-5.12-2.15-9-2.14H32.54v1.6a13.38,13.38,0,0,1,2.19.27,2.11,2.11,0,0,1,1.28.71,2.92,2.92,0,0,1,.59,1.43,15.72,15.72,0,0,1,.15,2.37v19.56a13.66,13.66,0,0,1-.17,2.39,2.66,2.66,0,0,1-.66,1.43,3,3,0,0,1-1.41.71,12.84,12.84,0,0,1-2.39.25v1.6H47v-1.6a20.15,20.15,0,0,1-3-.19,3.43,3.43,0,0,1-1.77-.73,2.71,2.71,0,0,1-.8-1.53,15.43,15.43,0,0,1-.19-2.54v-8.09H45a22.83,22.83,0,0,0,6-.67,11,11,0,0,0,4-1.89,7.1,7.1,0,0,0,2.25-3,10.31,10.31,0,0,0,.72-4,6.84,6.84,0,0,0-3.18-6Zm-13.57.55a.62.62,0,0,1,.5-.72h4.07c2.29,0,4,.52,5.06,1.54s1.62,2.73,1.62,5.1-.66,4.23-2,5.31-3.42,1.6-6.25,1.6h-3V112.54Zm30,5.25a26.87,26.87,0,0,1,.14-3.11,5,5,0,0,1,.59-1.91,2.44,2.44,0,0,1,1.26-1,7.52,7.52,0,0,1,2.2-.42v-1.6H62.54v1.62a8.64,8.64,0,0,1,2.2.35,2.22,2.22,0,0,1,1.27,1,4.39,4.39,0,0,1,.59,1.82,23.7,23.7,0,0,1,.15,2.92v17a21.68,21.68,0,0,1-.17,3.12,3.75,3.75,0,0,1-.66,1.79,2.7,2.7,0,0,1-1.41.86,12,12,0,0,1-2.39.27v1.6h13.6v-1.6a12.63,12.63,0,0,1-2.37-.25,2.33,2.33,0,0,1-1.38-.88,4.16,4.16,0,0,1-.66-1.89,26.28,26.28,0,0,1-.17-3.32V117.79Zm10.64,23.94h1l1.21-2a11.63,11.63,0,0,0,8.17,3,15.09,15.09,0,0,0,4.63-.67,10.79,10.79,0,0,0,3.62-2,8.73,8.73,0,0,0,3.2-6.88,8.09,8.09,0,0,0-.5-3,7.12,7.12,0,0,0-1.72-2.52,16.87,16.87,0,0,0-3.29-2.39,48.84,48.84,0,0,0-5.17-2.58,26.52,26.52,0,0,1-3-1.54,11.44,11.44,0,0,1-2-1.47,4.44,4.44,0,0,1-1.4-3.43,4.26,4.26,0,0,1,1.51-3.4,6.24,6.24,0,0,1,4.09-1.26,6.68,6.68,0,0,1,4.6,1.68,10.56,10.56,0,0,1,2.93,5.13h1.55l-.46-8.36h-1l-1.09,1.89a12.18,12.18,0,0,0-3.29-1.87,9.86,9.86,0,0,0-3.45-.59,10.46,10.46,0,0,0-3.79.65,8.56,8.56,0,0,0-3,1.85,8.43,8.43,0,0,0-2,2.83,9.59,9.59,0,0,0-.25,6.49,6.81,6.81,0,0,0,1.49,2.42,12.9,12.9,0,0,0,2.82,2.18,42.19,42.19,0,0,0,4.43,2.17,35.35,35.35,0,0,1,3.56,1.72,10.86,10.86,0,0,1,2.25,1.61A4.78,4.78,0,0,1,99,135.06a4.85,4.85,0,0,1-1.81,4,7.65,7.65,0,0,1-4.92,1.47,10.6,10.6,0,0,1-3.52-.57,8.75,8.75,0,0,1-4.92-4.18,10.71,10.71,0,0,1-1.12-3.4H81.17Zm38.12-31a17.26,17.26,0,0,0-5.55,3.57,16.42,16.42,0,0,0-5,12,15.3,15.3,0,0,0,1.37,6.39,16.77,16.77,0,0,0,3.72,5.18,17.78,17.78,0,0,0,5.55,3.49,19.09,19.09,0,0,0,13.72,0,17.71,17.71,0,0,0,5.56-3.49,15.92,15.92,0,0,0,3.72-5.18,15,15,0,0,0,1.37-6.39,16.47,16.47,0,0,0-5.05-12,17.09,17.09,0,0,0-5.56-3.57,18.89,18.89,0,0,0-13.8,0Zm1.9,28.6a10.28,10.28,0,0,1-3.79-2.77,12.89,12.89,0,0,1-2.4-4.39,19.1,19.1,0,0,1-.84-5.77,21.13,21.13,0,0,1,.84-6.07,13.68,13.68,0,0,1,2.4-4.62,10.48,10.48,0,0,1,3.79-2.94,12.59,12.59,0,0,1,10,0,10.31,10.31,0,0,1,3.79,2.94,13.33,13.33,0,0,1,2.4,4.62,19.83,19.83,0,0,1,.84,6.07,18.21,18.21,0,0,1-.84,5.77,12.21,12.21,0,0,1-2.42,4.39,10.63,10.63,0,0,1-3.79,2.77,13.31,13.31,0,0,1-10,0ZM165,142.19a19.11,19.11,0,0,0,6.7-1.18A16.07,16.07,0,0,0,177,137.8a14,14,0,0,0,3.43-4.93,15.58,15.58,0,0,0,1.22-6.32,16.47,16.47,0,0,0-1.3-6.68,15.19,15.19,0,0,0-3.64-5.29,16.55,16.55,0,0,0-5.56-3.49,18.78,18.78,0,0,0-7-1.26H149.37v1.54a13.65,13.65,0,0,1,2.19.27,2.16,2.16,0,0,1,1.28.71,3,3,0,0,1,.59,1.43,14.44,14.44,0,0,1,.14,2.37v19.6a11.42,11.42,0,0,1-.19,2.41,2.71,2.71,0,0,1-.74,1.43,2.92,2.92,0,0,1-1.54.71,14.82,14.82,0,0,1-2.58.23v1.6Zm-1-30.28a11.92,11.92,0,0,1,5,1,10.22,10.22,0,0,1,3.81,2.89,12.88,12.88,0,0,1,2.42,4.62,20.8,20.8,0,0,1,.84,6.22q0,6.63-3.07,10.06t-8.84,3.42c-4.18,0-6.27-1.59-6.27-4.79V112.54a.66.66,0,0,1,.55-.72H164Zm32.07.46a.64.64,0,0,1,.53-.71h5.53a21.31,21.31,0,0,1,3.66.25,6.5,6.5,0,0,1,2.5.88,4.47,4.47,0,0,1,1.56,1.7,8.51,8.51,0,0,1,.83,2.75h1.47l-.39-7.39H187.49v1.52a13.65,13.65,0,0,1,2.19.27,2.16,2.16,0,0,1,1.28.71,2.78,2.78,0,0,1,.58,1.43,13.42,13.42,0,0,1,.15,2.37v19.58a12.76,12.76,0,0,1-.17,2.39,2.48,2.48,0,0,1-.67,1.43,3,3,0,0,1-1.41.71,12.65,12.65,0,0,1-2.38.25v1.6h26.13l.63-8.27h-1.6a12.46,12.46,0,0,1-1.05,3.08,5.41,5.41,0,0,1-1.68,2,6.51,6.51,0,0,1-2.61,1.07,23.86,23.86,0,0,1-7.11.08,5.48,5.48,0,0,1-2.17-.8,3,3,0,0,1-1.16-1.47,6.81,6.81,0,0,1-.33-2.28V126a18.75,18.75,0,0,1,3.89.32,7.08,7.08,0,0,1,2.44.92,3.28,3.28,0,0,1,1.26,1.54,5.62,5.62,0,0,1,.36,2.18h1.48V119.51h-1.47a5.45,5.45,0,0,1-.39,2.19,3.47,3.47,0,0,1-1.3,1.51,6.89,6.89,0,0,1-2.45.86,24.24,24.24,0,0,1-3.81.27v-12Zm53.36,12.14,6.69-8.61c.76-1,1.41-1.77,1.94-2.35a9.21,9.21,0,0,1,1.48-1.38,3.74,3.74,0,0,1,1.42-.61,7.86,7.86,0,0,1,1.75-.14v-1.6h-11.5v1.55a5.47,5.47,0,0,1,2.46.39,1.56,1.56,0,0,1,.69,1.45,4,4,0,0,1-.46,1.77,15.1,15.1,0,0,1-1.64,2.39l-4.14,5.21-4.58-6.8a5.56,5.56,0,0,1-1.17-2.78c0-1.09.91-1.63,2.73-1.63v-1.6H231v1.6a6.82,6.82,0,0,1,3.11.65,6.67,6.67,0,0,1,2.39,2.15l8.55,11.63-8.25,10.5a24.31,24.31,0,0,1-1.79,2,9.15,9.15,0,0,1-1.62,1.3,6.09,6.09,0,0,1-1.62.69,8.09,8.09,0,0,1-1.83.21v1.6h11.7v-1.6a10.53,10.53,0,0,1-2.69-.23.89.89,0,0,1-.72-.86,2.45,2.45,0,0,1,.23-.92,9.38,9.38,0,0,1,.76-1.39c.35-.56.82-1.23,1.41-2s1.32-1.71,2.19-2.82l3.62-4.53,4.79,7.14c.47.72.86,1.31,1.14,1.76s.5.83.64,1.12a3.7,3.7,0,0,1,.3.78,3.18,3.18,0,0,1,.06.62,1.09,1.09,0,0,1-.7,1,6.43,6.43,0,0,1-2.58.35v1.6h14.36v-1.6a6.5,6.5,0,0,1-5.36-3Z"/></g></g></svg>