<svg xmlns="http://www.w3.org/2000/svg" viewBox="0 0 100.04 123.43"><title>アセット 1</title><g id="レイヤー_2" data-name="レイヤー 2"><g id="レイヤー_1-2" data-name="レイヤー 1"><path d="M99.51,64.28h0v-.13a45.47,45.47,0,0,0-2.15-9.28L76.15,0h-.61L55.92,51.78a12.31,12.31,0,0,1-3.5,5.36,7.79,7.79,0,0,1-4.9,1.56H39.18c-1.86,0-3.59-.06-5.16-.17a12.5,12.5,0,0,1-4.12-1,6.1,6.1,0,0,1-2.72-2.3,7.8,7.8,0,0,1-1-4.2V1.82c1.23-.1,2.13-.12,3.91-.24.83-.05,1.93-.11,2.75-.11V1.12H29.11l-2.54.08-2.14.09H19.48l-2.1-.09-2.55-.08H0v.35H11.15a13.48,13.48,0,0,1,2.46.22,5.54,5.54,0,0,1,2.14.82A4.42,4.42,0,0,1,17.24,4.2a6.17,6.17,0,0,1,.57,2.9v46a6.17,6.17,0,0,1-.57,2.9,4.39,4.39,0,0,1-1.48,1.69,5.52,5.52,0,0,1-2.15.82,13.45,13.45,0,0,1-2.45.22v.35h11c2.1,0,7.8.17,7.8.17l10.69.17H61.36V58.7a8.93,8.93,0,0,1-1.71-.17,5.49,5.49,0,0,1-1.7-.65,3.88,3.88,0,0,1-1.32-1.35,4.09,4.09,0,0,1-.52-2.16,8.73,8.73,0,0,1,.52-2.68l6.13-16.37H75.2A8.89,8.89,0,0,1,83.51,41l5.1,13.27a16.24,16.24,0,0,1,.62,1.82c.17.63.47,1.43.87,2.74a3.54,3.54,0,0,1-1.93,4.59,17,17,0,0,1-5.2.87H82l-3.68.08H71.72L68,64.32l-4.6-.09H44.83a146,146,0,0,1-14.93-.87l.42.07c-.51,0-1-.07-1.56-.07a16.38,16.38,0,0,0-6.22,1.22,17.65,17.65,0,0,0-5.26,3.29,16,16,0,0,0-3.63,4.84,13.22,13.22,0,0,0-1.36,5.89,15.47,15.47,0,0,0,1.31,6.71A15.13,15.13,0,0,0,17,90a23.69,23.69,0,0,0,4.87,3.38c1.8,1,3.64,1.87,5.51,2.73,1.58.76,3.24,1.58,5,2.48a29.18,29.18,0,0,1,4.77,3,15.72,15.72,0,0,1,3.55,3.86,8.82,8.82,0,0,1,1.4,4.86,12.13,12.13,0,0,1-1.1,5.21,11.4,11.4,0,0,1-3,4A14,14,0,0,1,33.7,122a14.93,14.93,0,0,1-5.21.91,13.81,13.81,0,0,1-6.61-1.56,17,17,0,0,1-5.08-4.14,20.69,20.69,0,0,1-3.42-5.82,28.13,28.13,0,0,1-1.71-6.57h-.52c0,1.84,0,3.56.09,5.15s.09,3,.09,4.2,0,2.25-.09,3.29-.09,2.45-.09,4.24h.35a4.37,4.37,0,0,1,5.67-1.38,36.17,36.17,0,0,0,3.7,1.68,22,22,0,0,0,8.06,1.43,24.58,24.58,0,0,0,7.89-1.21,19.26,19.26,0,0,0,6.22-3.4,15.42,15.42,0,0,0,4.12-5.19,16.18,16.18,0,0,0,.18-13.16,18.11,18.11,0,0,0-3.46-4.94A24.17,24.17,0,0,0,39,91.77c-1.82-1.07-3.66-2-5.52-2.9Q31,87.66,28.26,86.44a31.65,31.65,0,0,1-5-2.77,15.9,15.9,0,0,1-3.77-3.55A7.87,7.87,0,0,1,18,75.27a12,12,0,0,1,.88-4.67A11.15,11.15,0,0,1,21.23,67a10.27,10.27,0,0,1,3.54-2.34,11.5,11.5,0,0,1,4.34-.82A12.18,12.18,0,0,1,34.45,65a15.25,15.25,0,0,1,4.43,3.2,18.49,18.49,0,0,1,2.92,4l.55.26c1.8.81,3.55,1.61,5.25,2.42,1.13.52,2.25,1.1,3.36,1.7a19.87,19.87,0,0,1,1-4.16,13.83,13.83,0,0,1,2.14-3.94,10.35,10.35,0,0,1,3.33-2.77,9.54,9.54,0,0,1,4.51-1h2.5l2.14.06a4.42,4.42,0,0,1,4.3,4.38v48a6.3,6.3,0,0,1-.57,2.9,4.39,4.39,0,0,1-1.49,1.68,5.7,5.7,0,0,1-2.15.83,14.39,14.39,0,0,1-2.45.21v.35h4.2L71,123l1.93-.09h4.2l1.92.09,2.63.09H97v-.34H85.94a13.45,13.45,0,0,1-2.45-.22,5.52,5.52,0,0,1-2.15-.82A4.58,4.58,0,0,1,79.85,120a6.43,6.43,0,0,1-.57-2.9V65c2.87-.11,5.06-.19,6.58-.21l2.71-.05a9.22,9.22,0,0,1,4.6,1.13,11.05,11.05,0,0,1,3.37,2.94,14.83,14.83,0,0,1,2.19,4,16.86,16.86,0,0,1,1,4.25H100ZM62.93,34.8l7.23-19A2.25,2.25,0,0,1,73,14.48h0a2.27,2.27,0,0,1,1.3,1.31l6.81,19Z"/></g></g></svg>